<svg xmlns="http://www.w3.org/2000/svg" version="1.1" xmlns:xlink="http://www.w3.org/1999/xlink" xmlns:svgjs="http://svgjs.dev/svgjs" width="1500" height="1500" viewBox="0 0 1500 1500"><rect width="1500" height="1500" fill="#ffffff"></rect><g transform="matrix(0.6666666666666666,0,0,0.6666666666666666,249.78445003894376,297.87956989247317)"><svg viewBox="0 0 275 248" data-background-color="#0f172b" preserveAspectRatio="xMidYMid meet" height="1352" width="1500" xmlns="http://www.w3.org/2000/svg" xmlns:xlink="http://www.w3.org/1999/xlink"><g id="tight-bounds" transform="matrix(1,0,0,1,0.05927623929048309,0.4000000000000057)"><svg viewBox="0 0 274.88144752141903 247.2" height="247.2" width="274.88144752141903"><g><svg viewBox="0 0 395.52 355.6898615079559" height="247.2" width="274.88144752141903"><g transform="matrix(1,0,0,1,0,255.0872826281513)"><svg viewBox="0 0 395.52 100.6025788798046" height="100.6025788798046" width="395.52"><g id="textblocktransform"><svg viewBox="0 0 395.52 100.6025788798046" height="100.6025788798046" width="395.52" id="textblock"><g><rect width="114.76276164473227" height="4.893242987473104" y="81.38954820226996" fill="#000000" data-fill-palette-color="tertiary"></rect><rect width="114.76276164473227" height="4.893242987473104" y="81.38954820226996" x="280.7572383552677" fill="#000000" data-fill-palette-color="tertiary"></rect></g><g><svg viewBox="0 0 395.52 54.26022389578669" height="54.26022389578669" width="395.52"><g transform="matrix(1,0,0,1,0,0)"><svg width="395.52" viewBox="1.25 -32.2 245.63 33.7" height="54.26022389578669" data-palette-color="#fea116"><path d="M1.25-30.75L8.9-30.75 25.2-14.25 25.2-27.85 20.75-27.85 20.75-30.75 32.8-30.75 32.8-27.85 28.35-27.85 28.35 0 26.8 0 8.85-18.9 8.85-2.9 13.3-2.9 13.3 0 1.25 0 1.25-2.9 5.7-2.9 5.7-27.85 1.25-27.85 1.25-30.75ZM54.7-11.15L54.7-2.5 55.35-2.5Q55.8-2.5 56.25-2.55L56.25-2.55 57.35-2.65 57.35-0.25Q56.45-0.1 55.6 0L55.6 0Q54.9 0.1 54.1 0.15 53.3 0.2 52.8 0.2L52.8 0.2Q50.35 0.2 49.1-0.7 47.85-1.6 47.3-2.65L47.3-2.65Q46.2-1.25 44.77-0.43 43.35 0.4 41.5 0.4L41.5 0.4Q38.1 0.4 36.45-0.88 34.8-2.15 34.8-5.3L34.8-5.3Q34.8-6.4 34.82-7.4 34.85-8.4 34.95-9.15L34.95-9.15Q35.05-10.05 35.15-10.75L35.15-10.75 46.75-13.6Q46.7-15.05 46.65-16.28 46.6-17.5 46.55-18.35L46.55-18.35Q46.45-19.35 46.4-20.15L46.4-20.15Q46.25-20.2 45.95-20.25L45.95-20.25Q45.7-20.3 45.2-20.35 44.7-20.4 44-20.4L44-20.4Q43.55-20.4 43.15-20.38 42.75-20.35 42.35-20.3L42.35-20.3Q42.2-19.6 41.85-18.63 41.5-17.65 40.75-16.78 40-15.9 38.77-15.28 37.55-14.65 35.65-14.65L35.65-14.65 35.65-22.2Q37.25-22.35 38.9-22.5L38.9-22.5Q40.35-22.6 42-22.7 43.65-22.8 45.2-22.8L45.2-22.8Q48.45-22.8 50.32-22.25 52.2-21.7 53.17-20.35 54.15-19 54.42-16.75 54.7-14.5 54.7-11.15L54.7-11.15ZM43.1-2.3L43.1-2.3Q44.1-2.55 45.02-3.58 45.95-4.6 46.8-6.05L46.8-6.05 46.8-11.35 43-10.3Q42.9-9.5 42.85-8.68 42.8-7.85 42.8-7.05L42.8-7.05Q42.8-6.05 42.82-5.2 42.85-4.35 42.95-3.7L42.95-3.7Q43-2.95 43.1-2.3ZM56.6-19.9L56.6-22.45 66.6-22.45 72.4-10.2 75-15.5 72.15-21.45 72.15-22.45 79.5-22.45 85.15-10 88.35-19.9 84.65-19.9 84.65-22.45 94.55-22.45 94.55-19.9 91.4-19.9 84.2 1.5 83.15 1.5 76.7-11.95 70.2 1.5 69.15 1.5 59.15-19.9 56.6-19.9ZM115.94-11.15L115.94-2.5 116.59-2.5Q117.04-2.5 117.49-2.55L117.49-2.55 118.59-2.65 118.59-0.25Q117.69-0.1 116.84 0L116.84 0Q116.14 0.1 115.34 0.15 114.54 0.2 114.04 0.2L114.04 0.2Q111.59 0.2 110.34-0.7 109.09-1.6 108.54-2.65L108.54-2.65Q107.44-1.25 106.02-0.43 104.59 0.4 102.74 0.4L102.74 0.4Q99.34 0.4 97.69-0.88 96.04-2.15 96.04-5.3L96.04-5.3Q96.04-6.4 96.07-7.4 96.09-8.4 96.19-9.15L96.19-9.15Q96.29-10.05 96.39-10.75L96.39-10.75 107.99-13.6Q107.94-15.05 107.89-16.28 107.84-17.5 107.79-18.35L107.79-18.35Q107.69-19.35 107.64-20.15L107.64-20.15Q107.49-20.2 107.19-20.25L107.19-20.25Q106.94-20.3 106.44-20.35 105.94-20.4 105.24-20.4L105.24-20.4Q104.79-20.4 104.39-20.38 103.99-20.35 103.59-20.3L103.59-20.3Q103.44-19.6 103.09-18.63 102.74-17.65 101.99-16.78 101.24-15.9 100.02-15.28 98.79-14.65 96.89-14.65L96.89-14.65 96.89-22.2Q98.49-22.35 100.14-22.5L100.14-22.5Q101.59-22.6 103.24-22.7 104.89-22.8 106.44-22.8L106.44-22.8Q109.69-22.8 111.57-22.25 113.44-21.7 114.42-20.35 115.39-19 115.67-16.75 115.94-14.5 115.94-11.15L115.94-11.15ZM104.34-2.3L104.34-2.3Q105.34-2.55 106.27-3.58 107.19-4.6 108.04-6.05L108.04-6.05 108.04-11.35 104.24-10.3Q104.14-9.5 104.09-8.68 104.04-7.85 104.04-7.05L104.04-7.05Q104.04-6.05 104.07-5.2 104.09-4.35 104.19-3.7L104.19-3.7Q104.24-2.95 104.34-2.3ZM122.59-4.65L122.59-24.75 130.49-26.9 130.49-22.45 136.49-22.45 136.49-19.95 130.49-19.95 130.49-2.5 131.54-2.5Q134.44-2.5 134.44-6.9L134.44-6.9 136.99-6.9Q136.99-5.3 136.82-4 136.64-2.7 135.87-1.75 135.09-0.8 133.57-0.3 132.04 0.2 129.34 0.2L129.34 0.2Q127.49 0.2 126.19-0.23 124.89-0.65 124.09-1.35 123.29-2.05 122.94-2.9 122.59-3.75 122.59-4.65L122.59-4.65ZM138.99-28.25L138.99-30.75 141.94-30.75 149.84-32.2 149.84-19.95Q150.44-20.75 151.44-21.35L151.44-21.35Q152.29-21.9 153.71-22.35 155.14-22.8 157.29-22.8L157.29-22.8Q158.44-22.8 159.61-22.6 160.79-22.4 161.76-21.88 162.74-21.35 163.34-20.45 163.94-19.55 163.94-18.1L163.94-18.1 163.94-2.55 166.89-2.55 166.89 0 156.04 0 156.04-19.7Q155.94-19.7 155.74-19.75L155.74-19.75Q155.34-19.85 154.64-19.85L154.64-19.85Q153.59-19.85 152.76-19.43 151.94-19 151.34-18.45 150.74-17.9 150.36-17.32 149.99-16.75 149.84-16.45L149.84-16.45 149.84-2.55 152.79-2.55 152.79 0 138.99 0 138.99-2.55 141.94-2.55 141.94-28.25 138.99-28.25ZM180.49-22.8L180.49-22.8Q183.24-22.8 185.04-22.28 186.84-21.75 187.94-20.6 189.04-19.45 189.49-17.57 189.94-15.7 189.94-12.95L189.94-12.95Q189.94-12.1 189.89-11.48 189.84-10.85 189.79-10.45L189.79-10.45Q189.74-9.95 189.69-9.7L189.69-9.7 177.34-9.7Q177.39-8 177.54-6.63 177.69-5.25 177.84-4.25L177.84-4.25Q178.04-3.05 178.24-2.15L178.24-2.15Q178.39-2.05 178.69-2L178.69-2Q178.94-1.95 179.41-1.93 179.89-1.9 180.64-1.9L180.64-1.9Q181.89-1.9 183.01-2.08 184.14-2.25 184.99-2.65 185.84-3.05 186.31-3.78 186.79-4.5 186.79-5.55L186.79-5.55 189.49-5.55Q189.49-3.45 188.56-2.25 187.64-1.05 186.26-0.43 184.89 0.2 183.29 0.35 181.69 0.5 180.29 0.5L180.29 0.5Q177.24 0.5 175.11-0.13 172.99-0.75 171.66-2.13 170.34-3.5 169.74-5.73 169.14-7.95 169.14-11.15L169.14-11.15Q169.14-14.35 169.66-16.57 170.19-18.8 171.49-20.18 172.79-21.55 174.96-22.18 177.14-22.8 180.49-22.8ZM178.24-20.25L178.24-20.25Q177.99-19.15 177.79-17.85L177.79-17.85Q177.64-16.7 177.49-15.18 177.34-13.65 177.34-11.85L177.34-11.85 182.19-11.85Q182.09-13.95 181.94-15.53 181.79-17.1 181.59-18.15L181.59-18.15Q181.39-19.4 181.14-20.25L181.14-20.25Q180.99-20.3 180.79-20.4L180.79-20.4Q180.59-20.45 180.31-20.5 180.04-20.55 179.69-20.55L179.69-20.55Q179.34-20.55 179.09-20.5 178.84-20.45 178.64-20.4L178.64-20.4Q178.44-20.3 178.24-20.25ZM193.18-19.05L193.18-21.55 196.13-21.55 203.68-23 203.68-19.5Q203.78-19.65 204.23-20.2 204.68-20.75 205.58-21.33 206.48-21.9 207.93-22.35 209.38-22.8 211.48-22.8L211.48-22.8Q212.63-22.8 213.81-22.6 214.98-22.4 215.96-21.88 216.93-21.35 217.53-20.45 218.13-19.55 218.13-18.1L218.13-18.1 218.13-2.55 221.08-2.55 221.08 0 210.23 0 210.23-19.7Q210.13-19.7 209.93-19.75L209.93-19.75Q209.53-19.85 208.83-19.85L208.83-19.85Q207.78-19.85 206.96-19.43 206.13-19 205.53-18.45 204.93-17.9 204.56-17.32 204.18-16.75 204.03-16.45L204.03-16.45 204.03-2.55 206.98-2.55 206.98 0 193.18 0 193.18-2.55 196.13-2.55 196.13-19.05 193.18-19.05ZM244.23-11.15L244.23-2.5 244.88-2.5Q245.33-2.5 245.78-2.55L245.78-2.55 246.88-2.65 246.88-0.25Q245.98-0.1 245.13 0L245.13 0Q244.43 0.1 243.63 0.15 242.83 0.2 242.33 0.2L242.33 0.2Q239.88 0.2 238.63-0.7 237.38-1.6 236.83-2.65L236.83-2.65Q235.73-1.25 234.31-0.43 232.88 0.4 231.03 0.4L231.03 0.4Q227.63 0.4 225.98-0.88 224.33-2.15 224.33-5.3L224.33-5.3Q224.33-6.4 224.36-7.4 224.38-8.4 224.48-9.15L224.48-9.15Q224.58-10.05 224.68-10.75L224.68-10.75 236.28-13.6Q236.23-15.05 236.18-16.28 236.13-17.5 236.08-18.35L236.08-18.35Q235.98-19.35 235.93-20.15L235.93-20.15Q235.78-20.2 235.48-20.25L235.48-20.25Q235.23-20.3 234.73-20.35 234.23-20.4 233.53-20.4L233.53-20.4Q233.08-20.4 232.68-20.38 232.28-20.35 231.88-20.3L231.88-20.3Q231.73-19.6 231.38-18.63 231.03-17.65 230.28-16.78 229.53-15.9 228.31-15.28 227.08-14.65 225.18-14.65L225.18-14.65 225.18-22.2Q226.78-22.35 228.43-22.5L228.43-22.5Q229.88-22.6 231.53-22.7 233.18-22.8 234.73-22.8L234.73-22.8Q237.98-22.8 239.86-22.25 241.73-21.7 242.71-20.35 243.68-19 243.96-16.75 244.23-14.5 244.23-11.15L244.23-11.15ZM232.63-2.3L232.63-2.3Q233.63-2.55 234.56-3.58 235.48-4.6 236.33-6.05L236.33-6.05 236.33-11.35 232.53-10.3Q232.43-9.5 232.38-8.68 232.33-7.85 232.33-7.05L232.33-7.05Q232.33-6.05 232.36-5.2 232.38-4.35 232.48-3.7L232.48-3.7Q232.53-2.95 232.63-2.3Z" opacity="1" transform="matrix(1,0,0,1,0,0)" fill="#000000" class="wordmark-text-0" data-fill-palette-color="primary" id="text-0"></path></svg></g></svg></g><g transform="matrix(1,0,0,1,114.76276164473227,67.06976051220843)"><svg viewBox="0 0 165.99447671053545 33.53281836759617" height="33.53281836759617" width="165.99447671053545"><g transform="matrix(1,0,0,1,8,0)"><svg width="149.99447671053545" viewBox="3.03 -40 180.57 40.38" height="33.53281836759617" data-palette-color="#fea116"><path d="M22.08 0L13.73 0 11.45-14.35 8.45-36.45 3.03-36.45 3.03-40 11.35-40 13.38-26.78 16.68-3.6 22.08-3.6 22.08 0ZM6.98 0L3.03 0 3.03-34.55 6.6-34.55 6.75-15.23 6.98 0ZM22.08-5.5L18.45-5.5 18.3-25.8 18.1-40 22.08-40 22.08-5.5ZM26.97-5.58L26.97-5.58Q26.95-6.2 26.93-6.81 26.92-7.43 26.95-8.08L26.95-8.08Q27.05-9.88 27.61-11.29 28.17-12.7 29.42-13.88 30.67-15.05 32.85-16.07L32.85-16.07Q33.45-16.38 34.09-16.68 34.72-16.98 35.4-17.28L35.4-17.28 35.4-14.45Q35-14.25 34.56-13.99 34.12-13.73 33.65-13.4L33.65-13.4Q32.02-12.45 31.48-11.03 30.95-9.6 30.92-8.03L30.92-8.03Q30.92-7.35 30.92-6.84 30.92-6.33 30.95-5.83L30.95-5.83Q31.07-4.35 31.87-3.51 32.67-2.68 34.07-2.68L34.07-2.68Q34.82-2.68 35.4-2.9L35.4-2.9 35.4-0.3Q34.37 0.33 32.8 0.33L32.8 0.33Q30.02 0.33 28.61-1.13 27.2-2.58 26.97-5.58ZM31.45-19.58L27.62-19.58Q27.55-20.65 27.55-21.78 27.55-22.9 27.57-23.93L27.57-23.93Q27.7-26.98 29.04-28.53 30.37-30.08 33.65-30.33L33.65-30.33 33.65-27.18Q32.65-26.98 32.07-26.34 31.5-25.7 31.45-24.45L31.45-24.45Q31.4-23.73 31.38-22.76 31.37-21.8 31.4-20.93 31.42-20.05 31.45-19.58L31.45-19.58ZM41.92 0L38.05 0 38.05-24.18Q38.05-25.43 37.65-26.13 37.25-26.83 36.3-27.08L36.3-27.08 36.3-30.33Q39.52-30.08 40.75-28.41 41.97-26.75 41.97-23.4L41.97-23.4 41.92 0ZM68.27 0L61.45 0 60.3-11.55 59.12-26.83 58.15-26.83 56.95-11.55 56.27-5.25 53.17-5.25 53.77-14.88 55.32-29.88 62-29.88 63.5-14.88 64.4-3.05 68.67-3.05 68.27 0ZM55.75 0L48.9 0 45.32-30 49.37-30 50.9-14.88 51.8-3.05 56.05-3.05 55.75 0ZM68.94-5.25L65.8-5.25 66.44-14.88 67.97-30 71.97-30 68.94-5.25ZM74.54-5.58L74.54-5.58Q74.52-6.2 74.5-6.81 74.49-7.43 74.52-8.08L74.52-8.08Q74.62-9.88 75.18-11.29 75.74-12.7 76.99-13.88 78.24-15.05 80.42-16.07L80.42-16.07Q81.02-16.38 81.66-16.68 82.29-16.98 82.97-17.28L82.97-17.28 82.97-14.45Q82.57-14.25 82.13-13.99 81.69-13.73 81.22-13.4L81.22-13.4Q79.59-12.45 79.05-11.03 78.52-9.6 78.49-8.03L78.49-8.03Q78.49-7.35 78.49-6.84 78.49-6.33 78.52-5.83L78.52-5.83Q78.64-4.35 79.44-3.51 80.24-2.68 81.64-2.68L81.64-2.68Q82.39-2.68 82.97-2.9L82.97-2.9 82.97-0.3Q81.94 0.33 80.37 0.33L80.37 0.33Q77.59 0.33 76.18-1.13 74.77-2.58 74.54-5.58ZM79.02-19.58L75.19-19.58Q75.12-20.65 75.12-21.78 75.12-22.9 75.14-23.93L75.14-23.93Q75.27-26.98 76.6-28.53 77.94-30.08 81.22-30.33L81.22-30.33 81.22-27.18Q80.22-26.98 79.64-26.34 79.07-25.7 79.02-24.45L79.02-24.45Q78.97-23.73 78.95-22.76 78.94-21.8 78.97-20.93 78.99-20.05 79.02-19.58L79.02-19.58ZM89.49 0L85.62 0 85.62-24.18Q85.62-25.43 85.22-26.13 84.82-26.83 83.87-27.08L83.87-27.08 83.87-30.33Q87.09-30.08 88.32-28.41 89.54-26.75 89.54-23.4L89.54-23.4 89.49 0ZM95.29-26.9L92.89-26.9 92.89-30 95.29-30 95.29-38.5 99.29-38.5 99.29-5.78Q99.29-3.98 99.95-3.34 100.61-2.7 102.61-2.7L102.61-2.7Q103.39-2.7 103.93-2.74 104.46-2.78 105.16-2.85L105.16-2.85 105.16 0.13Q104.56 0.25 103.93 0.31 103.29 0.38 102.56 0.38L102.56 0.38Q98.54 0.38 96.91-1.13 95.29-2.63 95.29-6.23L95.29-6.23 95.29-26.9ZM104.59-26.9L101.19-26.9 101.19-30 104.59-30 104.59-26.9ZM112.79 0L108.74 0 108.74-40 112.79-40 112.79 0ZM124.14 0L120.14 0 120.09-24.35Q120.09-25.95 119.41-26.65 118.74-27.35 117.21-27.35L117.21-27.35Q116.19-27.35 115.41-27.03L115.41-27.03 115.41-29.48Q116.01-29.93 116.81-30.15 117.61-30.38 118.66-30.38L118.66-30.38Q121.44-30.38 122.76-28.88 124.09-27.38 124.09-24.05L124.09-24.05 124.14 0ZM129.11-6.15L129.11-6.15Q129.06-7.95 129.02-10.19 128.98-12.43 128.98-14.83 128.98-17.23 129.01-19.54 129.03-21.85 129.11-23.8L129.11-23.8Q129.26-27 130.71-28.54 132.16-30.08 135.28-30.33L135.28-30.33 135.28-27.15Q134.13-26.93 133.65-26.21 133.16-25.5 133.13-24.3L133.13-24.3Q133.06-22 133.03-19.71 133.01-17.43 133.01-15.14 133.01-12.85 133.03-10.51 133.06-8.18 133.13-5.75L133.13-5.75Q133.16-4.4 133.69-3.73 134.21-3.05 135.28-2.85L135.28-2.85 135.28 0.33Q132.08 0.08 130.67-1.46 129.26-3 129.11-6.15ZM137.96 0.33L137.96 0.33 137.96-2.85Q138.98-3.08 139.45-3.76 139.91-4.45 139.96-5.78L139.96-5.78Q140.01-6.53 140.01-7.8 140.01-9.08 139.94-10.5L139.94-10.5 143.86-10.5Q143.94-9.65 143.95-8.3 143.96-6.95 143.91-6.15L143.91-6.15Q143.76-3 142.41-1.45 141.06 0.1 137.96 0.33ZM143.86-14.2L135.36-14.2 135.36-17.1 139.98-17.1Q140.03-18.55 140.03-20.04 140.03-21.53 140.02-22.68 140.01-23.83 139.96-24.3L139.96-24.3Q139.91-25.6 139.41-26.26 138.91-26.93 137.96-27.15L137.96-27.15 137.96-30.33Q141.03-30.08 142.41-28.53 143.78-26.98 143.91-23.93L143.91-23.93Q143.94-23.38 143.96-21.75 143.98-20.13 143.97-18.09 143.96-16.05 143.86-14.2L143.86-14.2ZM152.73 0L148.73 0 148.73-30 152.73-30 152.73 0ZM164.13 0L160.16 0 160.16-24.35Q160.13-25.95 159.43-26.65 158.73-27.35 157.21-27.35L157.21-27.35Q156.71-27.35 156.26-27.25 155.81-27.15 155.41-26.98L155.41-26.98 155.41-29.4Q156.03-29.88 156.83-30.13 157.63-30.38 158.66-30.38L158.66-30.38Q161.43-30.38 162.77-28.88 164.11-27.38 164.13-24.05L164.13-24.05 164.13 0ZM168.6-5.58L168.6-5.58Q168.58-6.2 168.57-6.81 168.56-7.43 168.58-8.08L168.58-8.08Q168.68-9.88 169.24-11.29 169.81-12.7 171.06-13.88 172.31-15.05 174.48-16.07L174.48-16.07Q175.08-16.38 175.72-16.68 176.35-16.98 177.03-17.28L177.03-17.28 177.03-14.45Q176.63-14.25 176.19-13.99 175.75-13.73 175.28-13.4L175.28-13.4Q173.66-12.45 173.12-11.03 172.58-9.6 172.56-8.03L172.56-8.03Q172.56-7.35 172.56-6.84 172.56-6.33 172.58-5.83L172.58-5.83Q172.7-4.35 173.5-3.51 174.31-2.68 175.7-2.68L175.7-2.68Q176.45-2.68 177.03-2.9L177.03-2.9 177.03-0.3Q176 0.33 174.43 0.33L174.43 0.33Q171.66 0.33 170.24-1.13 168.83-2.58 168.6-5.58ZM173.08-19.58L169.25-19.58Q169.18-20.65 169.18-21.78 169.18-22.9 169.2-23.93L169.2-23.93Q169.33-26.98 170.67-28.53 172-30.08 175.28-30.33L175.28-30.33 175.28-27.18Q174.28-26.98 173.7-26.34 173.13-25.7 173.08-24.45L173.08-24.45Q173.03-23.73 173.02-22.76 173-21.8 173.03-20.93 173.06-20.05 173.08-19.58L173.08-19.58ZM183.56 0L179.68 0 179.68-24.18Q179.68-25.43 179.28-26.13 178.88-26.83 177.93-27.08L177.93-27.08 177.93-30.33Q181.16-30.08 182.38-28.41 183.6-26.75 183.6-23.4L183.6-23.4 183.56 0Z" opacity="1" transform="matrix(1,0,0,1,0,0)" fill="#000000" class="slogan-text-1" data-fill-palette-color="secondary" id="text-1"></path></svg></g></svg></g></svg></g></svg></g><g transform="matrix(1,0,0,1,83.02589530234607,0)"><svg viewBox="0 0 229.46820939530784 229.46820939530784" height="229.46820939530784" width="229.46820939530784"><g><svg></svg></g><g id="icon-0"><svg viewBox="0 0 229.46820939530784 229.46820939530784" height="229.46820939530784" width="229.46820939530784"><g><path d="M0 114.734c0-63.366 51.368-114.734 114.734-114.734 63.366 0 114.734 51.368 114.734 114.734 0 63.366-51.368 114.734-114.734 114.734-63.366 0-114.734-51.368-114.734-114.734zM114.734 224.575c60.663 0 109.841-49.177 109.841-109.841 0-60.663-49.177-109.841-109.841-109.841-60.663 0-109.841 49.177-109.841 109.841 0 60.663 49.177 109.841 109.841 109.841z" data-fill-palette-color="tertiary" fill="#000000" stroke="transparent"></path></g><g transform="matrix(1,0,0,1,46.37668916516833,77.44893215887927)"><svg viewBox="0 0 136.71483106497118 74.57034507754929" height="74.57034507754929" width="136.71483106497118"><g><svg xmlns="http://www.w3.org/2000/svg" xmlns:xlink="http://www.w3.org/1999/xlink" version="1.1" x="0" y="0" viewBox="5 25.455 90 49.09" enable-background="new 0 0 100 100" xml:space="preserve" height="74.57034507754929" width="136.71483106497118" class="icon-dxe-0" data-fill-palette-color="accent" id="dxe-0"><g fill="#fea116" data-fill-palette-color="accent"><polygon fill="#000000" points="88.864,50 86.818,50 13.182,50 13.182,25.455 5,25.455 5,50 5,66.364 5,74.545 13.182,74.545    13.182,66.364 86.818,66.364 86.818,74.545 95,74.545 95,50  " data-fill-palette-color="accent"></polygon><rect x="17.273" y="35.682" fill="#000000" width="20.454" height="8.182" data-fill-palette-color="accent"></rect></g></svg></g></svg></g></svg></g></svg></g><g></g></svg></g><defs></defs></svg><rect width="274.88144752141903" height="247.2" fill="none" stroke="none" visibility="hidden"></rect></g></svg></g></svg>